<?xml version="1.0" standalone="no"?>
<!DOCTYPE svg PUBLIC "-//W3C//DTD SVG 20010904//EN"
 "http://www.w3.org/TR/2001/REC-SVG-20010904/DTD/svg10.dtd">
<svg version="1.0" xmlns="http://www.w3.org/2000/svg"
 width="300.000000pt" height="404.000000pt" viewBox="0 0 300.000000 404.000000"
 preserveAspectRatio="xMidYMid meet">
<metadata>
Created by potrace 1.10, written by Peter Selinger 2001-2011
</metadata>
<g transform="translate(0.000000,404.000000) scale(0.100000,-0.10000)"
fill="#000000" stroke="000000" stroke-width="20">
<path d="M2383 3928 c0 -62 -2 -140 -3 -173 -3 -50 -1 -60 13 -63 15 -3 17 13
17 172 0 141 -3 176 -13 176 -11 0 -14 -25 -14 -112z"/>
<path d="M1490 3780 c-74 -10 -146 -19 -160 -20 -20 0 -22 -2 -10 -10 9 -6 10
-10 3 -10 -6 0 -14 4 -17 9 -3 5 -52 8 -108 7 -104 -2 -213 -24 -255 -52 -27
-17 -31 -40 -5 -29 56 24 125 43 143 40 11 -2 31 2 43 11 25 15 169 17 160 2
-7 -11 46 1 62 13 6 5 38 12 70 15 32 3 83 9 113 14 55 8 136 6 249 -4 35 -4
62 -2 62 3 0 29 -181 35 -350 11z"/>
<path d="M1869 3759 c-12 -8 -12 -10 1 -19 21 -14 57 -14 53 0 -3 10 69 1 84
-11 6 -6 17 -8 23 -4 17 11 150 -28 150 -43 0 -8 -9 -16 -20 -19 -11 -3 -17
-9 -15 -14 3 -4 31 1 63 12 59 21 115 20 171 -3 14 -6 31 -12 36 -13 38 -5
170 -74 216 -112 75 -62 90 -97 109 -246 12 -98 3 -152 -30 -182 -22 -20 -107
-37 -116 -23 -3 4 -14 8 -24 8 -11 0 -40 10 -65 22 -33 16 -45 28 -45 43 0 12
-10 48 -21 81 -16 43 -23 95 -28 191 -3 72 -9 134 -13 138 -14 15 4 -255 22
-312 13 -43 15 -63 7 -80 -11 -25 4 -53 29 -53 7 0 18 -9 24 -20 6 -11 15 -20
21 -20 6 0 23 -8 37 -18 15 -10 37 -17 50 -16 12 1 20 -1 17 -4 -5 -5 25 -31
38 -32 4 0 7 7 7 17 0 9 3 13 7 10 3 -4 13 -1 22 6 40 35 47 28 43 -40 -3 -40
0 -74 8 -88 7 -13 10 -35 8 -50 -4 -16 -1 -28 7 -31 7 -3 12 -13 11 -22 -2 -9
1 -32 6 -52 16 -59 20 -368 7 -430 -7 -30 -15 -59 -19 -65 -4 -5 -13 -31 -21
-57 -7 -27 -16 -48 -20 -48 -4 0 -9 -10 -12 -22 -15 -55 -20 10 -23 256 -1
165 -6 272 -13 284 -14 26 -14 42 -1 22 8 -13 10 -13 10 1 0 9 -7 19 -15 23
-8 3 -15 14 -15 24 0 11 -7 25 -15 32 -19 16 -20 3 0 -69 17 -64 21 -621 6
-756 -15 -124 -41 -308 -47 -330 -6 -20 -6 -20 10 0 8 11 16 32 16 46 0 14 4
39 10 55 11 32 33 185 32 224 -1 55 10 110 20 107 18 -3 72 94 104 185 25 74
29 100 32 238 5 163 -3 234 -44 423 l-23 107 26 61 c22 50 24 65 15 80 -7 10
-12 35 -12 54 0 68 -31 230 -51 261 -61 99 -225 190 -409 228 -85 17 -337 62
-391 69 -20 3 -42 1 -50 -4z"/>
<path d="M1835 3705 c22 -19 47 -34 55 -34 18 -1 -20 32 -65 54 -26 13 -25 11
10 -20z"/>
<path d="M1146 3694 c-10 -26 1 -28 25 -5 22 21 22 21 2 21 -11 0 -24 -7 -27
-16z"/>
<path d="M823 3666 c-16 -14 -38 -43 -49 -65 -10 -22 -28 -44 -39 -49 -29 -13
-105 -130 -106 -161 0 -14 -9 -39 -20 -56 -10 -16 -23 -39 -28 -50 -5 -12 -16
-27 -24 -34 -28 -22 -48 -117 -52 -246 -2 -68 -7 -135 -11 -148 -7 -29 3 -67
17 -67 5 0 9 7 9 15 0 8 6 15 13 15 9 0 9 2 -1 9 -15 9 -11 50 9 94 8 17 9 31
3 35 -12 9 -18 58 -8 73 3 6 8 28 9 50 2 21 6 48 10 61 5 18 4 20 -4 8 -16
-23 -13 4 4 36 8 16 15 37 15 47 0 11 6 17 17 15 14 -2 19 5 21 31 2 19 12 41
24 51 12 10 21 29 22 48 0 18 4 32 9 32 4 0 7 7 7 16 0 8 5 12 10 9 6 -3 10 0
10 9 0 8 4 16 9 18 11 4 81 95 81 106 0 12 58 72 70 72 6 0 8 5 5 10 -3 6 1
13 9 16 9 3 16 10 16 15 0 17 -28 9 -57 -15z"/>
<path d="M1067 3642 c-15 -16 -24 -31 -20 -35 3 -4 1 -7 -5 -7 -7 0 -12 -14
-12 -32 l0 -32 31 50 c17 27 37 52 43 56 7 5 8 10 0 18 -7 7 -18 2 -37 -18z"/>
<path d="M1126 3594 c-4 -10 1 -22 10 -29 13 -9 14 -14 4 -20 -7 -4 -16 -2
-21 6 -7 11 -12 9 -24 -8 -9 -13 -23 -23 -31 -23 -19 0 -18 -26 2 -34 22 -9
23 -8 17 13 -6 23 25 38 33 16 4 -8 17 -15 31 -15 23 0 24 3 17 28 -4 15 -7
39 -6 55 1 30 -22 38 -32 11z"/>
<path d="M1212 3440 c3 -41 21 -73 65 -116 18 -17 33 -37 33 -43 0 -7 4 -10 9
-7 11 7 63 -11 71 -24 6 -9 76 -22 123 -22 60 0 83 5 109 23 14 11 29 19 33
19 3 0 14 7 22 16 13 13 17 13 24 2 7 -11 9 -11 9 1 0 8 7 11 20 8 11 -3 18
-1 14 4 -3 5 8 9 25 9 16 0 33 5 36 11 4 5 18 14 31 19 13 5 24 17 24 26 0 16
-2 16 -17 1 -10 -8 -31 -18 -48 -22 -47 -10 -147 -45 -179 -63 -21 -10 -53
-15 -104 -14 -125 3 -226 63 -281 167 l-21 40 2 -35z"/>
<path d="M1670 3370 c0 -12 40 -34 48 -26 3 4 -3 13 -14 21 -22 17 -34 19 -34
5z"/>
<path d="M1560 3339 c0 -13 36 -29 67 -29 l28 0 -25 13 c-36 19 -70 27 -70 16z"/>
<path d="M2315 3300 c-29 -46 -25 -65 23 -105 23 -20 32 -23 32 -12 0 9 -9 18
-19 22 -11 3 -23 15 -26 26 -7 23 3 78 17 97 6 6 8 12 4 12 -3 0 -17 -18 -31
-40z"/>
<path d="M1324 3025 c-17 -42 -17 -78 0 -128 17 -47 41 -74 84 -96 28 -14 45
-16 100 -9 90 12 98 25 14 21 -63 -2 -64 -1 -21 7 26 4 55 12 65 17 22 11 145
10 162 -1 7 -4 12 -3 12 3 0 5 -6 12 -12 14 -8 3 -6 6 5 6 9 1 17 5 17 10 0 5
-9 7 -20 4 -11 -3 -44 -2 -74 1 -50 7 -54 9 -71 47 -12 25 -22 36 -28 30 -5
-5 0 -21 14 -41 24 -31 24 -32 5 -46 -25 -17 -50 -19 -40 -1 4 6 -3 2 -15 -10
-34 -36 -95 -32 -132 8 -28 30 -63 119 -50 129 7 5 10 70 4 70 -2 0 -11 -16
-19 -35z"/>
<path d="M1376 2931 c4 -46 24 -66 24 -24 0 17 2 40 5 50 3 10 -1 5 -9 -12
l-14 -30 -5 25 c-2 14 -3 10 -1 -9z"/>
<path d="M1462 2961 c-17 -10 7 -21 46 -21 26 1 26 1 8 15 -22 17 -35 18 -54
6z"/>
<path d="M1178 2943 c-3 -10 -1 -40 2 -68 l7 -50 2 68 c1 67 -3 83 -11 50z"/>
<path d="M1430 2901 c0 -14 62 -53 70 -44 3 3 -1 8 -8 10 -6 3 -9 10 -5 16 4
6 0 8 -10 4 -9 -3 -23 1 -32 9 -8 9 -15 11 -15 5z"/>
<path d="M2434 2861 c-5 -5 -18 -11 -29 -14 -11 -3 -4 -5 18 -6 35 -1 43 -10
38 -43 0 -5 4 -8 10 -8 7 0 9 9 6 21 -4 15 0 23 14 26 26 7 24 20 -3 18 -13
-1 -28 2 -34 6 -6 5 -15 5 -20 0z"/>
<path d="M2176 2835 c2 -11 4 -33 4 -50 0 -23 3 -27 10 -15 12 19 13 60 1 60
-5 0 -11 6 -14 13 -2 6 -3 3 -1 -8z"/>
<path d="M2200 2849 c0 -9 30 -17 67 -17 13 -1 20 4 17 11 -5 14 -84 19 -84 6z"/>
<path d="M2371 2853 c-1 -6 -14 -14 -30 -18 -16 -3 -33 -16 -39 -30 -7 -14
-16 -25 -22 -25 -5 0 -10 -13 -10 -30 0 -26 -4 -30 -26 -30 l-26 0 23 21 c20
16 20 18 4 11 -11 -5 -32 -8 -47 -6 -15 1 -30 -2 -33 -7 -11 -16 23 -40 62
-44 41 -5 60 2 65 25 2 8 11 21 21 28 10 8 16 21 15 30 -2 9 3 16 9 15 16 -4
46 42 40 59 -4 9 -6 9 -6 1z"/>
<path d="M1850 2817 c19 -18 44 -33 55 -31 11 1 30 2 43 3 12 0 22 6 22 11 0
6 -11 8 -25 4 -15 -4 -25 -2 -25 5 0 6 -10 11 -23 11 -13 0 -32 7 -43 15 -36
27 -38 15 -4 -18z"/>
<path d="M2128 2804 c-12 -34 -13 -35 -20 -13 -6 18 -7 16 -3 -8 2 -18 0 -33
-5 -33 -6 0 -10 -6 -10 -14 0 -8 -17 -27 -37 -44 -79 -61 -210 -69 -279 -17
-20 15 -35 22 -32 14 2 -8 20 -24 39 -36 19 -12 43 -30 54 -40 15 -14 35 -18
81 -17 73 1 144 37 174 87 10 18 23 37 29 44 6 6 13 23 17 37 3 14 9 26 13 26
4 0 8 11 9 25 3 37 -15 30 -30 -11z"/>
<path d="M2553 2833 c-7 -3 -13 -13 -13 -23 0 -22 -25 -44 -43 -37 -10 4 -13
-2 -9 -19 5 -26 8 -25 59 19 22 19 22 19 16 -4 -6 -21 -5 -23 10 -10 17 14 24
67 8 56 -5 -3 -11 1 -13 8 -2 8 -9 12 -15 10z"/>
<path d="M1137 2813 c3 -7 1 -13 -5 -13 -13 0 -9 -27 6 -42 9 -9 12 -6 12 14
0 15 2 33 5 41 4 8 0 14 -9 14 -8 0 -12 -6 -9 -14z"/>
<path d="M1182 2788 c-7 -7 -11 -21 -11 -32 1 -19 2 -19 6 -2 4 15 7 16 14 5
6 -10 9 -6 9 14 0 31 -1 32 -18 15z"/>
<path d="M456 2753 c-9 -21 -28 -56 -41 -78 -33 -54 -53 -120 -70 -240 -8 -55
-19 -116 -26 -135 -13 -43 -20 -283 -9 -337 5 -21 16 -69 24 -108 9 -38 16
-104 16 -145 0 -42 5 -81 10 -86 6 -6 13 -35 16 -65 3 -30 8 -57 11 -61 2 -5
-2 -8 -9 -8 -9 0 -9 -3 2 -10 23 -14 32 25 19 84 -13 62 -24 140 -39 270 -6
54 -14 106 -19 115 -5 9 -12 68 -15 131 -5 95 -3 132 14 210 12 52 23 112 25
132 3 21 12 63 20 93 15 50 18 54 37 44 11 -6 21 -9 22 -7 1 2 8 11 15 21 12
15 11 17 -10 15 -36 -4 -35 25 5 90 20 31 36 62 36 69 0 6 8 14 18 18 16 7 15
8 -3 15 -31 13 -32 12 -49 -27z"/>
<path d="M1824 2768 c9 -15 16 -35 16 -44 0 -22 26 -1 33 27 5 17 3 18 -10 8
-12 -11 -18 -9 -35 11 l-20 25 16 -27z"/>
<path d="M1084 2626 c-11 -13 -18 -28 -16 -34 5 -15 39 -16 47 -1 4 6 17 15
29 20 18 8 16 9 -8 4 -25 -5 -28 -4 -23 14 7 26 -2 25 -29 -3z"/>
<path d="M478 2512 c-37 -4 -64 -42 -73 -99 -4 -26 -13 -59 -20 -73 -20 -40
-16 -325 6 -364 24 -43 33 -14 14 44 -19 57 -18 172 1 238 10 32 11 48 2 61
-8 13 -6 28 10 64 12 26 19 54 16 61 -3 8 -1 17 5 21 6 3 11 -2 11 -12 0 -13
6 -9 19 13 11 18 25 34 33 37 21 7 6 13 -24 9z"/>
<path d="M806 2419 c-17 -20 -25 -41 -24 -60 l2 -29 23 28 c12 15 23 23 23 17
1 -5 6 1 11 14 13 32 5 37 -20 12 -16 -16 -21 -17 -21 -6 0 8 4 15 10 15 5 0
14 9 20 20 16 29 6 25 -24 -11z"/>
<path d="M1413 2419 c-12 -4 -25 -14 -30 -21 -4 -8 -19 -19 -33 -26 l-25 -13
25 7 c14 3 32 6 41 7 9 1 15 6 13 12 -3 6 8 15 23 21 15 5 24 12 18 16 -5 3
-20 2 -32 -3z"/>
<path d="M1326 2399 c-11 -11 -43 -31 -70 -45 -28 -13 -40 -22 -27 -18 18 5
22 3 17 -7 -4 -8 -1 -6 7 4 15 18 32 24 22 7 -3 -6 1 -7 10 -3 13 5 14 7 3 14
-12 8 -4 13 15 10 4 0 15 7 25 17 10 9 27 22 37 27 17 10 16 11 -1 12 -11 0
-28 -8 -38 -18z"/>
<path d="M435 2387 c-4 -10 -3 -23 4 -30 16 -16 26 0 14 25 -10 21 -11 22 -18
5z"/>
<path d="M646 2355 c-17 -14 -40 -28 -53 -31 -17 -5 -22 -11 -18 -25 3 -11 7
-27 10 -37 3 -12 -7 -24 -34 -42 -33 -20 -61 -55 -61 -75 0 -14 30 -2 50 20
13 14 29 25 37 25 7 0 13 7 13 15 0 8 4 15 10 15 5 0 8 10 7 22 -4 23 23 78
56 116 27 29 19 28 -17 -3z"/>
<path d="M732 2356 c4 -4 -1 -17 -12 -28 -22 -24 -32 -85 -13 -85 7 0 11 2 8
5 -2 2 2 17 10 32 8 15 11 31 7 35 -4 5 -2 5 5 1 7 -4 17 3 24 16 6 13 8 20 4
16 -5 -4 -15 -2 -24 4 -9 7 -13 9 -9 4z"/>
<path d="M1602 2353 c-6 -2 -10 -9 -6 -14 3 -5 -7 -4 -21 1 -45 17 -62 9 -20
-9 22 -10 49 -28 59 -40 12 -13 22 -17 26 -11 4 6 17 1 33 -12 32 -25 124 -67
150 -68 11 0 17 -8 17 -22 0 -21 1 -21 14 -3 8 12 25 18 47 18 26 -1 29 1 14
7 -11 4 -23 6 -27 3 -5 -2 -8 1 -8 7 0 6 -7 19 -16 27 -13 14 -17 14 -25 2 -6
-9 -11 -10 -16 -3 -5 5 -22 16 -40 23 -18 7 -35 22 -39 33 -3 12 -9 16 -13 11
-3 -6 -16 -13 -28 -17 -18 -6 -22 -4 -17 7 4 10 -7 21 -35 33 -22 9 -38 21
-35 26 6 9 5 9 -14 1z"/>
<path d="M791 2288 c0 -10 -1 -20 -1 -23 0 -3 -4 -16 -9 -28 -5 -13 -5 -30 -1
-37 11 -17 24 46 17 81 -2 15 -5 17 -6 7z"/>
<path d="M667 2259 c-16 -22 -11 -67 5 -51 10 10 22 72 14 72 -3 0 -11 -9 -19
-21z"/>
<path d="M1387 2229 c-26 -5 -67 -22 -92 -38 -28 -18 -53 -27 -68 -24 -16 3
-26 -1 -30 -12 -4 -9 -3 -13 2 -10 5 3 20 0 34 -6 20 -9 34 -6 80 15 58 26 65
26 167 5 53 -10 55 -10 76 17 l22 27 39 -18 c44 -20 103 -63 102 -73 -3 -19 2
-25 10 -13 6 10 4 25 -6 45 l-16 31 22 -19 c11 -11 21 -15 21 -9 0 12 -37 47
-65 61 -25 12 -162 32 -213 31 -20 -1 -58 -5 -85 -10z"/>
<path d="M698 2190 c-3 -19 -1 -29 6 -27 15 5 20 37 8 49 -6 6 -11 -1 -14 -22z"/>
<path d="M637 2174 c-11 -12 -8 -79 5 -92 18 -18 31 -15 25 7 -2 10 0 25 4 34
6 11 5 18 -4 24 -8 4 -16 14 -18 21 -3 7 -8 10 -12 6z"/>
<path d="M2279 2139 c-20 -12 62 -41 100 -35 20 3 51 0 69 -6 24 -9 37 -9 51
-1 12 7 23 8 36 1 14 -8 16 -8 10 2 -6 10 -4 12 8 7 9 -3 19 -2 22 3 6 9 -44
16 -70 10 -27 -6 -57 -1 -72 11 -16 14 -135 20 -154 8z"/>
<path d="M2140 2060 c0 -24 6 -39 20 -48 18 -11 20 -10 20 12 0 13 -6 26 -12
29 -7 3 -1 10 15 16 35 14 26 32 -14 29 -26 -2 -29 -6 -29 -38z"/>
<path d="M1647 2084 c-3 -3 -3 -13 0 -21 5 -12 -5 -14 -64 -11 -49 2 -70 -1
-70 -9 0 -11 36 -11 172 -1 6 0 17 -3 25 -6 11 -5 16 0 17 14 1 15 -4 20 -22
20 -13 0 -27 5 -30 10 -7 11 -19 13 -28 4z"/>
<path d="M688 2069 c-10 -5 -18 -15 -18 -20 0 -6 3 -8 8 -6 8 6 6 -77 -2 -99
-3 -8 4 -18 14 -24 11 -6 20 -8 20 -4 0 4 9 -1 20 -11 11 -10 20 -14 21 -9 0
5 4 0 9 -11 7 -14 8 -8 4 20 -8 55 -14 75 -23 75 -9 0 -6 -43 4 -59 3 -6 3
-11 0 -11 -13 0 -32 65 -29 101 2 22 -1 39 -6 39 -5 0 -7 7 -4 15 7 17 5 18
-18 4z"/>
<path d="M790 2065 c-7 -24 3 -94 10 -80 3 6 3 30 0 55 -3 29 -7 38 -10 25z"/>
<path d="M2343 2060 c-13 -5 -23 -15 -23 -22 0 -6 -6 -4 -13 6 -16 22 -60 18
-65 -6 -3 -15 4 -18 42 -18 25 0 46 -4 46 -9 0 -5 8 -7 19 -4 11 3 21 -2 25
-12 8 -22 26 -10 26 18 1 20 3 19 28 -11 15 -18 33 -32 40 -32 7 0 18 -13 23
-29 7 -21 19 -30 41 -35 47 -9 54 -7 30 10 -12 8 -22 26 -22 39 0 32 -10 56
-21 50 -4 -3 -25 5 -46 18 -21 13 -47 26 -58 29 -11 3 -27 8 -35 11 -8 3 -25
2 -37 -3z"/>
<path d="M560 2044 c1 -5 7 -20 15 -34 19 -32 19 -44 0 -36 -8 3 -15 2 -15 -3
0 -14 28 -33 40 -26 17 10 11 39 -15 75 -14 19 -25 30 -25 24z"/>
<path d="M761 2015 c0 -22 4 -47 9 -55 7 -11 9 -8 9 15 -1 17 -5 41 -9 55 -7
22 -8 20 -9 -15z"/>
<path d="M2106 2017 c-9 -30 -6 -48 21 -147 9 -36 19 -57 21 -47 2 9 -2 34 -9
55 -7 20 -15 66 -19 102 -5 54 -8 60 -14 37z"/>
<path d="M2217 1963 c-9 -8 35 -41 85 -62 49 -21 158 -36 158 -22 0 13 -39 25
-68 22 -30 -3 -115 25 -145 49 -13 11 -27 17 -30 13z"/>
<path d="M696 1858 c-4 -9 -2 -26 4 -38 16 -30 20 -22 11 20 -6 26 -10 31 -15
18z"/>
<path d="M400 1830 c0 -22 23 -90 30 -90 18 0 31 29 22 47 -15 28 -52 59 -52
43z"/>
<path d="M594 1781 c3 -4 -1 -16 -8 -27 -11 -15 -17 -16 -29 -6 -8 7 -29 17
-46 22 -26 7 -31 6 -31 -8 0 -9 -3 -27 -6 -39 -4 -15 -2 -23 6 -23 6 0 10 6 7
13 -2 6 0 20 5 30 9 17 11 17 38 -3 15 -11 33 -20 39 -20 6 0 11 -5 11 -11 0
-6 -7 -8 -17 -4 -14 5 -15 3 -7 -5 20 -20 59 -8 62 19 5 31 -6 71 -19 71 -6 0
-8 -4 -5 -9z"/>
<path d="M1766 1585 c-11 -8 -17 -17 -15 -20 3 -2 40 -11 83 -20 43 -8 85 -20
92 -26 19 -16 31 -3 18 19 -15 24 -94 61 -129 61 -16 0 -39 -6 -49 -14z"/>
<path d="M1670 1561 c0 -29 88 -77 127 -69 13 2 6 9 -22 22 -22 10 -45 24 -50
31 -14 17 -55 29 -55 16z"/>
<path d="M2555 1549 c-27 -74 -33 -99 -24 -99 5 0 11 6 13 13 2 6 9 29 16 50
11 35 7 68 -5 36z"/>
<path d="M2107 1523 c-27 -19 -34 -29 -27 -39 8 -8 7 -13 -1 -16 -7 -2 -9 -10
-5 -16 10 -17 63 11 71 38 3 11 12 20 20 20 14 0 27 25 18 34 -13 12 -39 5
-76 -21z"/>
<path d="M2010 1501 c0 -5 -14 -11 -31 -15 -35 -7 -30 -26 6 -26 27 0 75 19
75 31 0 7 -25 19 -41 19 -5 0 -9 -4 -9 -9z"/>
<path d="M1799 1446 c6 -7 7 -17 3 -21 -4 -5 -1 -4 7 0 11 6 13 4 7 -10 -5
-15 -4 -16 9 -5 9 7 18 10 21 7 3 -3 -3 -12 -15 -19 -12 -7 -21 -17 -21 -22 0
-5 11 1 24 13 30 28 25 46 -16 60 -25 9 -28 8 -19 -3z"/>
<path d="M382 1430 c-31 -5 -58 -15 -65 -25 -7 -9 -31 -20 -54 -25 -100 -23
-151 -50 -207 -111 -49 -53 -69 -89 -50 -89 4 0 37 31 74 69 48 49 80 73 109
82 22 7 41 16 41 21 0 4 14 8 30 8 17 0 30 4 30 9 0 5 17 16 38 24 62 25 126
12 199 -39 34 -24 64 -53 68 -63 3 -11 23 -34 43 -51 20 -17 44 -37 53 -45 9
-8 20 -15 26 -15 15 0 47 -40 80 -100 58 -104 52 -107 -44 -30 -141 114 -187
141 -251 150 -109 15 -211 -17 -299 -94 -39 -34 -47 -37 -81 -32 l-37 7 30
-25 c33 -28 55 -33 55 -13 0 20 48 60 115 96 50 28 74 34 145 38 59 3 94 1
115 -9 36 -16 116 -72 157 -110 16 -16 35 -28 42 -28 25 0 175 -182 226 -275
12 -22 31 -46 42 -53 10 -8 26 -31 35 -53 8 -21 19 -39 24 -39 23 0 2 46 -41
90 -36 37 -37 43 -5 60 l25 13 -23 21 c-12 12 -33 37 -47 55 -14 19 -31 41
-39 48 -26 27 -57 78 -110 183 -55 107 -67 123 -88 115 -6 -2 -13 -1 -15 3 -2
4 -22 23 -45 42 -24 18 -43 39 -43 45 0 17 -79 95 -96 95 -8 0 -14 4 -14 10 0
8 -83 52 -92 49 -2 -1 -27 -5 -56 -9z"/>
<path d="M1740 1423 c0 -28 -17 -39 -24 -16 -3 10 -4 5 -2 -12 4 -25 2 -27 -8
-13 -7 9 -17 13 -24 9 -9 -5 -6 -13 10 -28 38 -34 46 -35 40 -5 -4 26 -4 27
12 7 17 -20 17 -20 7 0 -5 11 -6 26 -1 35 5 9 5 22 -1 31 -7 11 -9 9 -9 -8z"/>
<path d="M1490 1395 c-9 -11 -15 -12 -20 -5 -4 6 -14 8 -23 4 -9 -3 -14 -10
-11 -15 3 -5 9 -7 14 -4 4 3 6 -5 3 -17 -5 -21 -4 -21 16 5 12 15 29 27 37 27
8 0 14 5 14 10 0 15 -16 12 -30 -5z"/>
<path d="M2291 1369 c18 -23 38 -62 45 -88 l13 -46 0 37 c1 20 -3 47 -8 60
-12 31 -46 69 -55 61 -3 -3 -6 -1 -6 5 0 7 -5 12 -11 12 -6 0 4 -19 22 -41z"/>
<path d="M2100 1372 c0 -12 5 -22 10 -22 6 0 10 -5 10 -11 0 -5 -5 -7 -11 -4
-6 4 -5 -2 2 -14 8 -12 16 -16 20 -10 3 6 10 10 15 10 5 -1 9 7 9 17 0 9 -6
17 -13 17 -8 0 -20 9 -28 19 -14 19 -14 19 -14 -2z"/>
<path d="M1640 1335 c-13 -33 -13 -45 0 -45 6 0 10 8 10 18 0 13 2 14 9 4 6
-11 9 -10 13 5 3 10 -1 24 -9 31 -11 11 -15 8 -23 -13z"/>
<path d="M1394 1328 c1 -7 -9 -22 -22 -33 -29 -25 -32 -68 -8 -112 8 -15 15
-23 16 -17 0 19 38 24 45 7 5 -14 8 -13 25 2 11 10 20 27 20 39 0 15 3 17 12
8 7 -7 21 -12 32 -12 11 0 27 -6 35 -13 16 -13 31 -18 161 -57 41 -13 82 -25
90 -28 34 -12 134 -12 142 1 4 6 8 7 8 2 0 -22 116 -1 130 24 5 9 10 11 10 4
0 -20 35 -24 69 -7 24 12 30 19 22 27 -9 9 -17 8 -31 -1 -28 -17 -44 -15 -65
8 -13 14 -22 17 -30 10 -7 -6 -20 -8 -29 -4 -11 4 -19 -2 -26 -21 -9 -23 -14
-26 -39 -20 -17 3 -32 2 -36 -4 -8 -14 -62 -14 -70 -1 -4 6 -11 8 -16 4 -5 -3
-28 -3 -49 1 -34 6 -40 11 -40 31 0 14 -5 22 -12 20 -7 -3 -26 -7 -42 -11 -28
-6 -29 -5 -23 27 l5 33 -47 -1 c-26 0 -53 -4 -59 -8 -8 -4 -16 3 -22 19 -9 24
-11 25 -26 11 -8 -9 -26 -16 -39 -16 -37 0 -75 -18 -75 -35 0 -8 -6 -15 -14
-15 -9 0 -15 15 -18 45 -3 39 0 48 24 68 15 12 27 26 28 31 0 5 -6 3 -14 -3
-10 -8 -16 -9 -19 -1 -3 6 -4 5 -3 -2z"/>
<path d="M1969 1323 c-1 -5 -2 -12 -4 -18 -1 -5 -3 -14 -4 -20 -1 -5 -5 -4
-10 3 -7 11 -9 11 -14 -2 -7 -17 9 -21 37 -10 17 7 22 54 6 54 -5 0 -11 -3
-11 -7z"/>
<path d="M2270 1267 c0 -2 7 -17 15 -34 20 -40 17 -101 -7 -114 -22 -12 -24
-29 -3 -29 18 0 65 79 65 109 0 12 -4 20 -8 17 -9 -6 -42 29 -42 44 0 6 -4 10
-10 10 -5 0 -10 -2 -10 -3z"/>
<path d="M1731 1221 c-14 -9 34 -24 134 -41 28 -4 62 -13 76 -18 15 -6 31 -7
40 -1 11 7 10 9 -5 9 -31 0 -96 22 -91 31 9 14 -16 21 -31 8 -9 -8 -18 -9 -22
-3 -4 5 -11 10 -17 10 -5 1 -23 5 -40 8 -16 3 -36 2 -44 -3z"/>
<path d="M2403 1123 c-7 -3 -13 -10 -13 -18 0 -7 -7 -18 -15 -25 -12 -10 -13
-16 -4 -27 10 -11 0 -31 -47 -100 -32 -48 -73 -104 -91 -125 -21 -25 -30 -45
-26 -55 4 -11 8 -13 11 -5 2 7 9 12 15 12 7 1 29 29 50 63 21 34 49 75 62 91
23 29 24 29 70 16 27 -8 63 -28 85 -49 58 -55 76 -68 101 -76 26 -8 85 -66 94
-93 3 -9 42 -46 87 -82 44 -36 107 -91 139 -123 53 -52 93 -76 72 -44 -4 6 -9
21 -9 32 -1 11 -2 25 -3 31 -1 12 -273 264 -428 398 -67 58 -103 95 -103 108
0 18 -2 19 -16 7 -14 -12 -12 -17 25 -51 23 -21 41 -40 41 -42 0 -3 -14 -2
-32 1 -48 7 -75 30 -81 66 -6 46 1 59 24 46 18 -9 19 -7 13 18 -8 34 -6 31
-21 26z m135 -200 c40 -29 147 -133 122 -118 -8 5 -46 34 -85 64 -38 31 -76
61 -85 68 -32 26 12 13 48 -14z m217 -196 c22 -23 76 -76 120 -116 68 -64 73
-69 30 -40 -27 18 -76 57 -107 86 -31 29 -62 53 -68 53 -7 0 -9 7 -6 16 4 11
2 15 -8 11 -15 -6 -30 16 -19 27 11 10 16 7 58 -37z"/>
<path d="M504 1076 c-9 -19 -7 -27 13 -46 12 -12 23 -18 23 -12 0 5 -7 15 -15
22 -11 9 -13 16 -5 24 12 12 14 36 3 36 -5 0 -13 -11 -19 -24z"/>
<path d="M373 1079 c-44 -13 -42 -29 1 -19 19 4 40 4 47 -1 24 -15 37 -10 32
12 -4 14 -8 17 -13 9 -5 -9 -9 -9 -14 -1 -8 13 -9 13 -53 0z"/>
<path d="M211 1012 c16 -43 61 -89 104 -106 22 -8 31 -10 20 -3 -10 7 -28 22
-40 35 -11 13 -30 35 -42 49 -13 14 -23 29 -23 33 0 4 -6 10 -14 13 -12 5 -13
1 -5 -21z"/>
<path d="M1986 1012 c-4 -7 -13 -10 -19 -6 -7 3 -4 -1 6 -9 16 -14 16 -15 -7
-19 -14 -3 -23 -1 -20 3 3 5 -8 9 -25 9 -16 0 -33 -4 -36 -10 -6 -10 -43 6
-56 24 -4 4 -10 3 -13 -3 -4 -6 -2 -11 3 -11 6 0 11 -4 11 -9 0 -5 -10 -7 -22
-5 -18 3 -17 1 5 -8 26 -11 33 -36 8 -30 -7 1 -9 -2 -6 -8 5 -8 15 -6 32 5 14
10 22 12 18 5 -6 -9 -3 -10 10 -3 10 6 26 8 35 6 22 -6 117 36 103 45 -5 4
-12 14 -15 22 -3 10 -6 11 -12 2z"/>
<path d="M315 829 c-16 -5 -92 -20 -169 -34 -76 -13 -141 -27 -145 -30 -27
-28 76 -13 372 51 15 3 27 10 27 15 0 11 -45 10 -85 -2z"/>
<path d="M766 808 c10 -13 31 -34 48 -48 l31 -25 -19 30 c-19 31 -55 64 -69
65 -4 0 0 -10 9 -22z"/>
<path d="M1060 743 c0 -4 16 -25 35 -47 19 -21 35 -42 35 -46 0 -4 9 -10 20
-13 11 -3 20 -4 20 -2 0 1 -25 28 -55 60 -30 31 -55 53 -55 48z"/>
<path d="M2155 719 c-6 -8 -26 -46 -45 -86 -26 -53 -42 -74 -62 -82 -39 -14
-35 -30 17 -81 49 -48 61 -47 20 2 -14 16 -25 33 -25 38 0 4 13 22 29 39 17
18 33 40 36 51 3 10 17 35 31 56 19 27 23 42 17 57 -7 15 -11 17 -18 6z"/>
<path d="M1192 608 c3 -7 27 -25 54 -40 53 -30 83 -37 47 -12 -12 9 -34 27
-50 40 -30 26 -57 32 -51 12z"/>
<path d="M1908 492 c-8 -9 -8 -16 0 -24 8 -8 12 -9 12 -1 0 6 9 13 20 16 11 3
20 9 20 14 0 14 -40 10 -52 -5z"/>
<path d="M1813 478 c-32 -15 -29 -30 5 -22 34 9 42 13 42 25 0 12 -19 11 -47
-3z"/>
<path d="M1857 403 c-30 -47 -67 -119 -67 -130 0 -11 56 72 81 120 27 52 17
59 -14 10z"/>
<path d="M2360 404 c0 -8 58 -48 138 -95 18 -11 27 -24 27 -42 0 -15 3 -27 8
-27 4 0 7 2 7 5 0 3 0 14 0 24 0 21 -40 71 -57 71 -5 0 -28 14 -51 31 -23 17
-42 28 -42 24 0 -4 -7 -2 -15 5 -8 7 -15 9 -15 4z"/>
<path d="M1276 367 c6 -15 64 -52 64 -40 0 4 -16 18 -35 30 -19 13 -32 17 -29
10z"/>
<path d="M2170 358 c0 -4 19 -8 43 -8 34 0 48 -6 72 -31 17 -16 45 -45 64 -63
18 -19 35 -46 36 -61 2 -15 9 -33 15 -39 9 -8 10 -3 4 19 -10 43 -22 64 -66
117 -34 41 -36 46 -16 41 13 -3 21 -3 18 0 -13 14 -170 37 -170 25z"/>
<path d="M21 279 c-1 -9 6 -22 14 -29 8 -7 15 -16 15 -20 0 -8 117 -189 132
-205 19 -19 -4 39 -28 72 -13 17 -24 36 -24 42 0 6 -4 11 -8 11 -5 0 -18 17
-30 39 -12 21 -29 44 -38 52 -9 7 -20 22 -24 34 -7 15 -9 16 -9 4z"/>
<path d="M1920 265 c-23 -28 -75 -53 -124 -60 -40 -6 -47 -5 -41 6 5 8 -3 3
-16 -11 -29 -30 -23 -35 28 -21 21 6 50 11 65 11 18 0 44 15 78 45 28 25 44
45 37 45 -8 0 -20 -7 -27 -15z"/>
<path d="M2430 270 c-13 -8 -13 -11 1 -25 15 -15 17 -15 21 9 6 28 1 31 -22
16z"/>
<path d="M2581 221 c6 -16 57 -57 62 -50 2 2 -12 17 -31 34 -19 16 -33 23 -31
16z"/>
<path d="M2100 204 c0 -13 63 -54 83 -54 8 0 19 -4 22 -10 3 -5 13 -10 21 -10
9 0 3 11 -16 30 -23 22 -37 29 -51 25 -13 -4 -28 0 -40 11 -10 9 -19 13 -19 8z"/>
<path d="M2520 178 c0 -22 17 -41 29 -34 8 5 8 13 1 27 -12 21 -30 26 -30 7z"/>
<path d="M2256 166 c3 -8 12 -17 20 -20 8 -3 14 -12 14 -20 0 -18 43 -42 109
-61 44 -13 45 -13 21 3 -13 9 -36 29 -50 43 -21 23 -99 69 -114 69 -3 0 -3 -6
0 -14z"/>
<path d="M1634 153 c15 -8 36 -11 46 -8 34 11 22 20 -26 21 -46 1 -46 1 -20
-13z"/>
<path d="M2560 122 c0 -10 22 -32 32 -32 4 0 8 9 8 20 0 13 -7 20 -20 20 -11
0 -20 -4 -20 -8z"/>
<path d="M1890 80 c-22 -6 -23 -8 -7 -15 20 -8 47 0 47 15 0 11 -4 11 -40 0z"/>
</g>
</svg>
