<?xml version="1.0" standalone="no"?>
<!DOCTYPE svg PUBLIC "-//W3C//DTD SVG 20010904//EN"
 "http://www.w3.org/TR/2001/REC-SVG-20010904/DTD/svg10.dtd">
<svg version="1.0" xmlns="http://www.w3.org/2000/svg"
 width="300.000000pt" height="112.000000pt" viewBox="0 0 300.000000 112.000000"
 preserveAspectRatio="xMidYMid meet">
<metadata>
Created by potrace 1.10, written by Peter Selinger 2001-2011
</metadata>
<g transform="translate(0.000000,112.000000) scale(0.100000,-0.100000)"
fill="#115e00" stroke="none">
<path d="M2838 1109 c-38 -21 -181 -47 -212 -38 -17 5 -54 9 -82 9 -54 0 -202
-34 -247 -57 -22 -11 -36 -11 -68 -3 -65 18 -302 -18 -349 -52 -39 -28 -170
-70 -170 -54 0 17 46 86 73 109 17 15 19 20 6 28 -23 15 -1649 11 -1679 -4
-13 -7 -35 -28 -47 -46 -22 -33 -23 -40 -23 -289 0 -241 1 -256 21 -288 11
-19 29 -39 39 -44 19 -10 1688 -15 1698 -6 3 3 -13 25 -36 50 -66 72 -105 242
-85 370 8 49 8 50 58 61 54 13 71 20 158 59 51 24 247 62 247 48 0 -3 -16 -19
-36 -36 -22 -19 -35 -40 -36 -56 -1 -37 -25 -120 -48 -165 -25 -49 -25 -77 -2
-98 37 -34 117 -8 151 47 23 37 39 136 22 136 -6 0 -11 -9 -11 -21 0 -63 -95
-151 -113 -105 -3 8 3 33 13 54 11 22 23 67 26 99 8 70 15 81 63 89 20 3 47
14 61 23 51 35 157 80 218 92 52 10 80 9 148 -1 81 -13 89 -12 167 10 103 29
127 40 127 56 0 19 -33 34 -52 23z m-1972 -102 c-48 -29 -66 -56 -66 -97 0
-32 -4 -40 -19 -40 -10 0 -35 -11 -55 -25 -42 -29 -53 -30 -81 -9 -40 30 -136
44 -203 29 -29 -6 -32 -3 -52 35 -34 67 -108 89 -150 45 -22 -23 -23 -29 -13
-65 9 -37 5 -94 -12 -160 -13 -54 62 -92 100 -50 21 23 30 22 62 -7 20 -18 23
-25 14 -42 -17 -31 -13 -69 11 -93 12 -12 22 -29 23 -37 0 -9 9 -31 18 -50 9
-19 17 -36 17 -38 0 -2 -68 -3 -152 -2 -141 1 -188 8 -213 32 -6 7 -5 7 5 2 9
-5 7 1 -5 14 -19 22 -20 37 -20 268 l0 245 33 29 32 29 373 -1 c292 0 368 -3
353 -12z m838 -24 c-9 -21 -18 -43 -21 -50 -2 -6 0 -20 6 -30 7 -15 5 -22 -10
-31 -31 -20 -41 -60 -40 -159 0 -102 10 -150 47 -231 39 -85 47 -81 -149 -81
-96 1 -179 4 -185 8 -9 6 -8 16 4 41 22 44 10 79 -37 104 -31 17 -38 17 -64 5
-16 -8 -36 -26 -44 -41 -16 -28 -15 -30 14 -101 7 -17 2 -18 -54 -15 -33 1
-61 4 -61 6 0 2 11 18 25 36 14 18 25 46 25 62 0 17 10 48 23 71 50 93 89 152
103 157 25 10 68 -19 92 -63 20 -35 22 -46 13 -77 -6 -21 -7 -42 -3 -48 4 -6
7 -15 7 -21 0 -15 66 -55 92 -55 14 0 38 13 55 31 29 28 30 34 25 87 -15 162
-179 342 -312 342 -23 0 -57 -8 -78 -19 l-36 -19 -42 40 c-40 38 -44 40 -89
34 -35 -5 -49 -3 -53 7 -3 7 -20 21 -39 30 -31 16 -10 17 385 17 l417 0 -16
-37z m510 -2 c5 0 3 -7 -3 -15 -15 -18 -55 -15 -59 6 -3 17 1 17 62 9z m-1279
-31 c11 -13 16 -29 12 -47 -38 -202 -51 -260 -71 -332 -22 -83 -41 -111 -48
-74 -2 10 2 61 10 113 12 90 11 234 -3 292 -14 54 62 90 100 48z m-585 -48
c27 -34 25 -50 -17 -137 -37 -78 -51 -92 -78 -82 -13 5 -13 12 0 54 17 55 20
139 5 148 -18 11 -11 35 12 44 31 11 55 3 78 -27z m728 5 c32 -29 28 -70 -16
-152 -28 -53 -43 -71 -61 -73 -26 -4 -26 -4 0 111 12 50 11 60 -3 85 -17 29
-14 45 12 54 20 7 40 -1 68 -25z m261 -36 c121 -62 226 -267 181 -352 -14 -26
-43 -24 -76 4 -27 23 -27 25 -15 70 13 44 12 49 -13 91 -66 113 -153 130 -195
38 -12 -26 -37 -71 -56 -101 -19 -30 -37 -71 -40 -90 -11 -69 -15 -79 -31 -85
-10 -4 -25 1 -37 11 -27 25 -18 88 26 195 19 46 40 101 46 123 15 54 46 104
74 115 29 13 90 4 136 -19z m-740 -53 c46 -14 111 -75 111 -103 0 -32 -42 -63
-98 -71 -61 -9 -113 -35 -146 -75 -48 -57 -77 -13 -33 51 16 24 41 41 87 59
50 20 66 31 68 49 3 20 -1 22 -39 22 -36 0 -49 -6 -81 -37 -37 -36 -40 -37
-66 -23 -20 12 -28 25 -30 51 -7 80 99 116 227 77z m222 -10 c13 -24 3 -55
-22 -69 -28 -14 -69 13 -69 46 0 48 68 66 91 23z m-17 -165 c-1 -32 -5 -72 -9
-89 -11 -61 34 -114 70 -84 18 15 45 68 45 87 0 8 7 39 16 68 l15 54 30 -18
c17 -10 39 -16 50 -14 11 3 19 0 19 -6 0 -7 -3 -10 -7 -8 -9 6 -11 -5 -19
-105 -5 -58 -3 -70 15 -89 11 -12 18 -25 16 -29 -5 -8 -485 -13 -485 -6 0 3 9
21 21 40 14 24 18 43 13 58 -7 24 -40 58 -56 58 -4 0 -8 4 -8 8 0 12 41 29 87
37 45 9 98 41 114 72 9 17 21 23 45 23 l32 0 -4 -57z m525 -137 c17 -44 -16
-80 -62 -68 -22 6 -39 45 -30 68 14 36 79 37 92 0z m-781 12 c20 -20 14 -56
-13 -74 -23 -15 -27 -15 -50 0 -44 29 -28 86 25 86 14 0 31 -5 38 -12z"/>
<path d="M2756 845 c-11 -30 -76 -48 -153 -43 -78 5 -87 -5 -20 -23 59 -16
111 -13 142 7 27 18 62 74 46 74 -5 0 -12 -7 -15 -15z"/>
<path d="M2436 822 c-20 -33 106 -115 245 -159 128 -40 141 -53 113 -115 -21
-48 -10 -65 33 -51 26 9 28 13 28 64 -1 30 -5 62 -9 72 -5 11 -4 17 4 17 15 0
150 82 150 91 0 4 -6 12 -14 18 -18 15 -38 6 -117 -55 l-56 -43 -133 52 c-76
31 -148 66 -170 85 -38 32 -64 40 -74 24z"/>
<path d="M2370 804 c-32 -13 -95 -12 -142 2 -10 3 -18 1 -18 -4 0 -14 75 -42
111 -42 34 0 85 26 93 47 6 15 2 15 -44 -3z"/>
<path d="M2460 601 c0 -4 44 -22 98 -41 165 -57 184 -67 180 -92 -2 -16 -18
-30 -48 -45 l-45 -22 -140 48 c-77 27 -149 52 -160 57 -14 5 -17 4 -10 -4 6
-6 71 -37 144 -69 152 -66 170 -82 128 -118 -27 -24 -27 -24 -6 -35 16 -9 28
-9 50 0 38 16 45 43 22 83 l-19 32 48 -3 c57 -5 78 9 78 49 0 41 -16 76 -43
93 -36 25 -277 82 -277 67z"/>
<path d="M1730 512 c0 -22 19 -42 40 -42 8 0 49 -16 89 -35 41 -20 76 -33 79
-30 12 12 -88 93 -134 109 -61 21 -74 20 -74 -2z"/>
<path d="M1966 409 c-39 -31 -32 -42 13 -20 37 19 39 19 55 2 36 -40 11 -72
-60 -74 -43 -2 -48 0 -63 30 -18 37 -31 42 -31 13 0 -67 79 -113 139 -80 14 7
22 3 40 -20 19 -26 28 -30 69 -30 52 0 107 27 116 58 9 28 -9 68 -39 88 -21
14 -30 14 -55 4 -17 -7 -35 -21 -41 -31 -12 -23 -9 -23 36 -2 34 16 36 16 50
-3 16 -22 19 -50 6 -59 -5 -3 -30 -9 -55 -14 -61 -11 -86 5 -68 43 17 38 15
59 -9 90 -25 32 -66 34 -103 5z"/>
<path d="M2293 394 c3 -5 62 -36 131 -69 89 -42 126 -64 124 -75 -4 -15 -27
-17 -113 -9 -32 3 -40 1 -43 -14 -7 -34 17 -47 82 -47 56 0 65 3 90 29 45 47
34 59 -104 122 -131 60 -176 77 -167 63z"/>
<path d="M2265 340 c-3 -5 2 -10 13 -10 24 0 52 -30 52 -57 0 -25 -35 -57 -78
-71 -27 -9 -38 -9 -58 4 -23 15 -24 15 -24 -4 0 -83 158 -57 195 32 14 33 6
67 -22 98 -17 19 -68 24 -78 8z"/>
<path d="M237 323 c-3 -5 -2 -23 0 -40 5 -30 9 -33 39 -33 30 0 34 -3 34 -25
0 -17 -8 -29 -25 -37 -14 -6 -25 -20 -25 -30 0 -15 4 -17 18 -9 37 20 53 48
50 88 -3 35 -6 38 -35 41 -27 3 -33 7 -33 28 0 23 -14 33 -23 17z"/>
<path d="M1694 308 c3 -13 6 -31 6 -40 0 -12 10 -18 33 -20 42 -4 51 -42 14
-59 -24 -11 -45 -49 -27 -49 5 0 23 12 40 26 27 23 31 32 28 68 -3 38 -5 41
-35 44 -27 3 -33 7 -33 28 0 15 -6 24 -16 24 -12 0 -15 -6 -10 -22z"/>
<path d="M50 271 c0 -11 5 -23 11 -27 8 -4 9 -26 5 -66 -6 -47 -4 -59 6 -56
16 6 22 83 11 129 -10 37 -33 51 -33 20z"/>
<path d="M107 270 c-3 -11 -1 -23 5 -26 6 -4 7 -25 3 -53 -8 -53 6 -47 24 11
14 42 40 57 58 32 16 -21 0 -54 -26 -54 -18 0 -37 -27 -27 -38 3 -2 19 1 35 8
40 16 58 60 41 100 -14 33 -34 38 -61 14 -16 -14 -18 -14 -24 5 -8 27 -21 27
-28 1z"/>
<path d="M355 282 c-3 -3 -5 -11 -5 -19 0 -9 13 -13 40 -13 38 0 40 -2 40 -30
0 -16 -4 -30 -9 -30 -12 0 -41 -29 -41 -41 0 -5 14 -2 30 6 37 19 54 58 42 94
-7 21 -17 27 -50 32 -23 3 -44 3 -47 1z"/>
<path d="M544 276 c-3 -8 -2 -21 2 -28 5 -7 7 -22 6 -33 -3 -20 -3 -20 13 0
18 23 16 66 -2 73 -7 2 -16 -3 -19 -12z"/>
<path d="M606 273 c-4 -10 -1 -20 9 -25 21 -13 19 -51 -5 -66 -23 -14 -26 -32
-6 -32 40 0 58 62 34 115 -13 29 -23 32 -32 8z"/>
<path d="M664 281 c-14 -14 0 -31 26 -31 29 0 30 -1 30 -51 0 -36 4 -49 13
-46 7 2 12 21 12 45 0 23 6 47 13 53 6 7 12 16 12 20 0 8 -99 17 -106 10z"/>
<path d="M856 273 c-4 -9 -2 -21 4 -27 5 -5 10 -29 10 -53 0 -24 5 -43 10 -43
11 0 14 98 4 124 -8 21 -20 20 -28 -1z"/>
<path d="M920 275 c0 -9 7 -27 17 -41 16 -25 15 -26 -13 -52 -25 -24 -26 -27
-10 -30 29 -6 48 22 48 68 -1 40 -15 70 -33 70 -5 0 -9 -7 -9 -15z"/>
<path d="M1105 281 c-15 -14 -2 -31 25 -31 28 0 30 -3 30 -35 0 -33 -2 -35
-35 -35 -24 0 -35 -5 -35 -15 0 -10 10 -15 33 -15 51 0 64 17 59 77 -4 50 -5
51 -38 55 -19 2 -37 2 -39 -1z"/>
<path d="M1214 281 c-9 -9 -4 -131 6 -131 6 0 10 23 10 50 0 49 1 50 30 50 29
0 30 -1 30 -51 0 -36 4 -49 13 -46 6 2 12 9 11 15 -1 7 -2 34 -2 61 l-2 49
-46 4 c-25 2 -47 1 -50 -1z"/>
<path d="M1526 274 c-9 -23 -9 -23 31 -26 61 -5 55 -54 -7 -67 -44 -9 -52 -31
-12 -31 44 0 74 29 75 73 1 43 -6 52 -50 60 -23 5 -33 2 -37 -9z"/>
<path d="M1638 278 c-9 -27 4 -129 15 -125 7 2 11 18 9 37 -2 19 1 36 9 41 11
6 11 12 -1 33 -15 28 -26 33 -32 14z"/>
<path d="M987 273 c-15 -15 -5 -23 28 -23 l35 0 0 -50 c0 -27 5 -50 10 -50 6
0 10 28 10 65 l0 65 -38 0 c-21 0 -42 -3 -45 -7z"/>
<path d="M1407 274 c-15 -15 -6 -23 31 -26 l37 -3 5 -55 c5 -46 7 -51 14 -29
4 14 6 45 4 70 -3 44 -3 44 -43 47 -23 2 -44 0 -48 -4z"/>
<path d="M358 224 c-5 -4 -8 -30 -8 -58 0 -35 3 -47 11 -39 5 5 9 32 7 58 -2
26 -6 43 -10 39z"/>
</g>
</svg>
